<?xml version="1.0" encoding="utf-8"?>
<!-- Svg Vector Icons : http://www.onlinewebfonts.com/icon -->
<!DOCTYPE svg PUBLIC "-//W3C//DTD SVG 1.1//EN" "http://www.w3.org/Graphics/SVG/1.1/DTD/svg11.dtd">
<svg version="1.1" xmlns="http://www.w3.org/2000/svg" xmlns:xlink="http://www.w3.org/1999/xlink" width="50" height="50" x="0px" y="0px" viewBox="0 0 1000 1000" enable-background="new 0 0 1000 1000" xml:space="preserve">
<metadata> Svg Vector Icons : http://www.onlinewebfonts.com/icon </metadata>
<g><g transform="translate(0.000000,511.000000) scale(0.100000,-0.100000)"><path d="M327.8,4987.6c-36.6-8.1-91.5-36.6-120-63C92,4814.8,100.1,5160.4,100.1,101.9v-4664.1l44.7-67.1c26.4-36.6,73.2-87.4,103.7-109.8l56.9-42.7h4694.6h4694.6l56.9,42.7c30.5,22.4,77.3,73.2,103.7,109.8l44.7,67.1v3722.7c-2,2858.7-8.1,3735-26.4,3777.7C9839,3017.4,8119,4934.7,8053.9,4969.3c-46.8,24.4-670.9,28.5-3856.9,32.5C2104.8,5001.8,364.4,4997.7,327.8,4987.6z M2560.3,3385.4c0-982,6.1-1303.3,24.4-1321.6c18.3-18.3,561.1-24.4,2317.8-24.4c2244.6,0,2293.4,0,2313.8,38.6c12.2,26.4,20.3,477.8,20.3,1321.6v1282.9h341.6h341.6l837.7-935.3L9595,2810V-827.3v-3639.4h-660.8h-660.8v2287.3V108l-46.8,30.5c-42.7,26.4-418.8,30.5-3407.6,26.4c-3299.8-6.1-3360.8-6.1-3389.3-44.7c-24.4-34.6-28.5-382.2-28.5-2313.8v-2273.1H903.2H405.1V108v4574.6h1077.6h1077.6V3385.4z M7033.2,3442.4V2242.8H4898.4H2763.6v1199.6v1199.6h2134.8h2134.8V3442.4z M8070.1-2260.7v-2206H4847.6H1625v2206v2206h3222.6h3222.6V-2260.7z"/><path d="M5510.4,4263.8c-40.7-52.9-42.7-75.2-42.7-829.5c0-752.3,2-778.7,40.7-821.4c22.4-24.4,63-48.8,87.4-56.9c26.4-6.1,223.6-8.1,439.2-4.1c384.3,6.1,392.4,6.1,431,54.9c36.6,44.7,38.6,89.5,38.6,837.7c0,764.5-2,792.9-40.7,831.6c-38.6,38.6-67.1,40.7-475.8,40.7h-437.1L5510.4,4263.8z"/><path d="M2584.7-1014.4c-38.6-38.6-30.5-134.2,14.2-158.6c26.4-14.2,799-20.3,2358.5-20.3c2079.9,0,2319.9,4.1,2348.3,32.5c38.6,36.6,42.7,111.8,8.1,146.4C7279.2-979.8,2619.2-979.8,2584.7-1014.4z"/><path d="M2596.9-2150.9c-42.7-24.4-48.8-119.9-12.2-156.5c34.6-34.6,4694.6-34.6,4729.2,0c34.6,34.6,30.5,109.8-8.1,146.4c-28.5,28.5-268.4,32.5-2352.4,32.5C3414.2-2130.6,2619.2-2136.6,2596.9-2150.9z"/><path d="M2605-3299.6c-56.9-40.7-56.9-117.9,0-158.6c40.7-28.5,296.8-32.5,2344.2-32.5c2506.9,0,2389-6.1,2389,111.8c0,117.9,117.9,111.8-2389,111.8C2901.8-3267.1,2645.7-3271.2,2605-3299.6z"/></g></g>
</svg>