<?xml version="1.0"?>
<svg xmlns="http://www.w3.org/2000/svg"  width="60" height="60" viewBox="0 0 64 64">
    <path d="M 31 2 C 15.009 2 2 15.01 2 31 C 2 46.99 15.009 60 31 60 C 46.991 60 60 46.99 60 31 C 60 15.01 46.991 2 31 2 z M 31 4 C 45.888 4 58 16.112 58 31 C 58 45.888 45.888 58 31 58 C 16.112 58 4 45.888 4 31 C 4 16.112 16.112 4 31 4 z M 30.5625 8.0058594 C 24.670577 8.125335 18.964094 10.508562 14.738281 14.734375 C 5.7702813 23.702375 5.7702813 38.294719 14.738281 47.261719 C 14.933281 47.456719 15.189312 47.554687 15.445312 47.554688 C 15.701313 47.554688 15.957344 47.456719 16.152344 47.261719 C 16.543344 46.870719 16.543344 46.238656 16.152344 45.847656 C 7.9633437 37.660656 7.9623906 24.339391 16.150391 16.150391 C 20.899391 11.403391 27.700891 9.201625 34.337891 10.265625 C 34.880891 10.355625 35.396375 9.9815469 35.484375 9.4355469 C 35.571375 8.8905469 35.199297 8.3760625 34.654297 8.2890625 C 33.290797 8.07025 31.922175 7.9782881 30.5625 8.0058594 z M 38.658203 9.3847656 C 38.268625 9.4013125 37.908422 9.6466562 37.763672 10.035156 C 37.570672 10.553156 37.833562 11.130266 38.351562 11.322266 C 39.060563 11.587266 39.765219 11.895234 40.449219 12.240234 C 40.594219 12.313234 40.748391 12.347656 40.900391 12.347656 C 41.266391 12.347656 41.618922 12.147828 41.794922 11.798828 C 42.043922 11.306828 41.844563 10.704078 41.351562 10.455078 C 40.601562 10.077078 39.828781 9.7372656 39.050781 9.4472656 C 38.921281 9.3990156 38.788063 9.37925 38.658203 9.3847656 z M 44.433594 12.675781 C 44.179469 12.706656 43.936125 12.835234 43.765625 13.052734 C 43.424625 13.487734 43.501547 14.114078 43.935547 14.455078 C 44.601547 14.976078 45.245609 15.547391 45.849609 16.150391 C 54.037609 24.338391 54.037609 37.661609 45.849609 45.849609 C 45.458609 46.240609 45.458609 46.872672 45.849609 47.263672 C 46.044609 47.458672 46.300641 47.556641 46.556641 47.556641 C 46.812641 47.556641 47.068672 47.458672 47.263672 47.263672 C 56.231672 38.296672 56.231672 23.704328 47.263672 14.736328 C 46.603672 14.076328 45.897922 13.450859 45.169922 12.880859 C 44.952922 12.710859 44.687719 12.644906 44.433594 12.675781 z M 30 21 C 29.74425 21 29.488469 21.097469 29.292969 21.292969 L 20.294922 30.292969 C 20.201922 30.384969 20.127172 30.494187 20.076172 30.617188 C 19.975172 30.861187 19.975172 31.138813 20.076172 31.382812 C 20.127172 31.505813 20.201922 31.614031 20.294922 31.707031 L 29.292969 40.707031 C 29.487969 40.902031 29.744 41 30 41 C 30.256 41 30.512031 40.902031 30.707031 40.707031 C 31.098031 40.316031 31.098031 39.683969 30.707031 39.292969 L 23.414062 32 L 41 32 C 41.552 32 42 31.553 42 31 C 42 30.447 41.552 30 41 30 L 23.414062 30 L 30.707031 22.707031 C 31.098031 22.316031 31.098031 21.683969 30.707031 21.292969 C 30.511531 21.097469 30.25575 21 30 21 z M 21.373047 47.394531 C 20.986328 47.346391 20.591766 47.527469 20.384766 47.886719 L 19.384766 49.617188 C 19.108766 50.096187 19.271 50.708375 19.75 50.984375 C 19.907 51.075375 20.079047 51.117188 20.248047 51.117188 C 20.594047 51.117188 20.930234 50.938187 21.115234 50.617188 L 22.115234 48.886719 C 22.391234 48.408719 22.229 47.798484 21.75 47.521484 C 21.6305 47.452484 21.501953 47.410578 21.373047 47.394531 z M 40.626953 47.394531 C 40.498047 47.410672 40.3695 47.451984 40.25 47.521484 C 39.771 47.797484 39.608766 48.410672 39.884766 48.888672 L 40.884766 50.619141 C 41.069766 50.940141 41.405953 51.119141 41.751953 51.119141 C 41.920953 51.119141 42.093 51.075375 42.25 50.984375 C 42.729 50.708375 42.891234 50.097141 42.615234 49.619141 L 41.615234 47.888672 C 41.408234 47.529422 41.013672 47.346109 40.626953 47.394531 z M 25.814453 49.34375 C 25.428203 49.397188 25.093578 49.675672 24.986328 50.076172 L 24.46875 52.009766 C 24.32575 52.542766 24.641781 53.091375 25.175781 53.234375 C 25.262781 53.257375 25.350547 53.267578 25.435547 53.267578 C 25.876547 53.267578 26.281391 52.974344 26.400391 52.527344 L 26.917969 50.595703 C 27.061969 50.062703 26.746891 49.512141 26.212891 49.369141 C 26.079141 49.333141 25.943203 49.325938 25.814453 49.34375 z M 36.185547 49.34375 C 36.056844 49.326031 35.920609 49.332641 35.787109 49.369141 C 35.253109 49.512141 34.937078 50.061703 35.080078 50.595703 L 35.599609 52.527344 C 35.719609 52.974344 36.122453 53.267578 36.564453 53.267578 C 36.649453 53.267578 36.736266 53.257375 36.822266 53.234375 C 37.356266 53.091375 37.672297 52.543766 37.529297 52.009766 L 37.013672 50.076172 C 36.906422 49.675672 36.571656 49.396906 36.185547 49.34375 z M 31 50 C 30.448 50 30 50.447 30 51 L 30 53 C 30 53.553 30.448 54 31 54 C 31.552 54 32 53.553 32 53 L 32 51 C 32 50.447 31.552 50 31 50 z"/>
</svg>
