<?xml version="1.0" encoding="iso-8859-1"?>
<!-- Generator: Adobe Illustrator 16.0.0, SVG Export Plug-In . SVG Version: 6.00 Build 0)  -->
<!DOCTYPE svg PUBLIC "-//W3C//DTD SVG 1.1//EN" "http://www.w3.org/Graphics/SVG/1.1/DTD/svg11.dtd">
<svg version="1.1" id="Capa_1" xmlns="http://www.w3.org/2000/svg" xmlns:xlink="http://www.w3.org/1999/xlink" x="0px" y="0px"
	 width="50" height="50" viewBox="0 0 471.786 471.786" style="enable-background:new 0 0 471.786 471.786;"
	 xml:space="preserve">
<g fill="#d2ce61">
	<g id="icons_18_">
		<g>
			<path d="M236.026,376.585L236.026,376.585c-0.004,0-0.008,0-0.014,0c-0.004,0-0.008,0-0.014,0l0,0
				c-3.11,0.057-5.842,1.662-7.454,4.079c-0.241,0.362-0.457,0.742-0.646,1.14c-0.127,0.264-0.241,0.536-0.34,0.812
				c-0.354,0.972-0.543,2.021-0.543,3.113c0,1.094,0.189,2.143,0.543,3.113c0.099,0.278,0.213,0.549,0.34,0.813
				c0.188,0.396,0.404,0.777,0.646,1.141c1.612,2.418,4.344,4.023,7.454,4.08l0,0c0.006,0,0.01,0,0.014,0c0.006,0,0.01,0,0.014,0
				l0,0c3.114-0.057,5.845-1.662,7.456-4.08c0.966-1.45,1.53-3.192,1.53-5.066s-0.564-3.616-1.53-5.065
				C241.871,378.247,239.14,376.642,236.026,376.585z"/>
			<path d="M195.967,371.2L195.967,371.2c-0.004-0.002-0.009-0.002-0.014-0.004c-0.004-0.002-0.01-0.004-0.014-0.005l0,0
				c-4.813-1.271-9.774,1.542-11.136,6.352c-1.362,4.809,1.387,9.806,6.152,11.248v0.001c0.004,0.002,0.008,0.002,0.013,0.003
				c0.004,0.001,0.008,0.002,0.013,0.004l0.001-0.002c4.813,1.271,9.774-1.542,11.136-6.352
				C203.481,377.639,200.732,372.642,195.967,371.2z"/>
			<path d="M158.638,354.784v-0.002c-0.003-0.002-0.007-0.002-0.012-0.007c-0.003-0.001-0.009-0.005-0.012-0.007h-0.001
				c-4.258-2.579-9.812-1.281-12.475,2.948c-2.666,4.229-1.439,9.799,2.724,12.526l-0.001,0.002
				c0.005,0.002,0.009,0.004,0.013,0.008c0.004,0.002,0.008,0.004,0.012,0.007h0.001c4.258,2.579,9.813,1.28,12.477-2.948
				C164.028,363.083,162.801,357.513,158.638,354.784z"/>
			<path d="M127.245,328.6c-0.004-0.002-0.006-0.006-0.011-0.009c-0.003-0.004-0.005-0.008-0.009-0.012h-0.001
				c-3.372-3.66-9.067-3.959-12.802-0.639c-3.737,3.32-4.108,9.012-0.868,12.791h-0.001c0.003,0.004,0.007,0.006,0.011,0.01
				c0.002,0.004,0.005,0.008,0.009,0.012l0,0c3.373,3.66,9.069,3.957,12.805,0.638c3.735-3.319,4.106-9.013,0.865-12.79
				L127.245,328.6z"/>
			<path d="M104.148,294.762c-0.003-0.005-0.005-0.009-0.008-0.013c-0.001-0.004-0.003-0.01-0.004-0.014l-0.002,0.002
				c-2.202-4.465-7.582-6.359-12.101-4.229c-4.522,2.13-6.485,7.485-4.444,12.024h-0.001c0.002,0.004,0.004,0.008,0.007,0.012
				c0.002,0.006,0.003,0.01,0.005,0.014l0.001-0.001c2.202,4.464,7.582,6.358,12.103,4.229S106.187,299.303,104.148,294.762
				L104.148,294.762z"/>
			<path d="M91.788,256.095c-0.001-0.005-0.002-0.01-0.003-0.016c0-0.004,0-0.009-0.001-0.014h-0.001
				c-0.905-4.895-5.565-8.182-10.495-7.361c-4.932,0.819-8.277,5.439-7.549,10.362h-0.001c0.001,0.005,0.003,0.009,0.005,0.013
				c0,0.006,0,0.011,0.001,0.016h0.001c0.904,4.895,5.565,8.182,10.496,7.361C89.169,265.638,92.517,261.018,91.788,256.095
				L91.788,256.095z"/>
			<path d="M236.033,76.907c-0.004,0-0.01,0-0.014,0c-0.005,0-0.009,0-0.014,0c-4.977,0.089-8.984,4.149-8.984,9.146
				s4.008,9.056,8.984,9.144v0.001c0.005,0,0.009,0,0.014,0c0.004,0,0.01,0,0.014,0v-0.001c4.979-0.088,8.985-4.147,8.985-9.144
				S241.011,76.996,236.033,76.907z"/>
			<path d="M190.988,82.985v-0.002c-0.004,0.002-0.008,0.003-0.013,0.004c-0.005,0.001-0.008,0.001-0.014,0.003v0.001
				c-4.764,1.442-7.514,6.438-6.152,11.248c1.363,4.809,6.324,7.622,11.138,6.351v0.001c0.004-0.001,0.009-0.003,0.014-0.005
				c0.004-0.001,0.009-0.002,0.014-0.003v-0.001c4.765-1.442,7.513-6.439,6.151-11.248
				C200.764,84.526,195.801,81.714,190.988,82.985z"/>
			<path d="M148.893,101.523L148.893,101.523c-0.005,0.002-0.008,0.005-0.012,0.007c-0.005,0.003-0.008,0.005-0.014,0.008h0.002
				c-4.164,2.728-5.39,8.298-2.725,12.527c2.663,4.229,8.217,5.526,12.476,2.948l0,0c0.004-0.002,0.009-0.006,0.012-0.007
				c0.005-0.003,0.009-0.005,0.013-0.007v-0.001c4.162-2.729,5.389-8.299,2.725-12.527
				C158.706,100.245,153.151,98.946,148.893,101.523z"/>
			<path d="M126.383,130.392c-3.735-3.32-9.431-3.021-12.805,0.638l0,0c-0.004,0.004-0.006,0.008-0.008,0.011
				c-0.005,0.004-0.008,0.006-0.011,0.011h0.001c-3.24,3.78-2.869,9.471,0.867,12.791c3.734,3.321,9.43,3.022,12.803-0.639
				l0.001,0.001c0.002-0.004,0.005-0.008,0.009-0.011c0.003-0.003,0.006-0.007,0.011-0.009l-0.003-0.002
				C130.491,139.403,130.12,133.711,126.383,130.392z"/>
			<path d="M99.71,164.996c-4.521-2.13-9.901-0.235-12.103,4.229l-0.002-0.001c-0.002,0.004-0.004,0.008-0.005,0.013
				c-0.002,0.004-0.004,0.008-0.007,0.012l0.001,0.001c-2.04,4.54-0.078,9.895,4.443,12.025c4.52,2.13,9.899,0.235,12.102-4.229
				l0.003,0.001c0.001-0.004,0.002-0.009,0.004-0.014c0.002-0.004,0.004-0.007,0.008-0.012h-0.002
				C106.194,172.48,104.23,167.125,99.71,164.996z"/>
			<path d="M84.247,205.326c-4.931-0.819-9.591,2.468-10.497,7.362c-0.001,0.005-0.001,0.009-0.002,0.015
				c-0.001,0.004-0.002,0.008-0.003,0.013h0.001c-0.729,4.923,2.617,9.543,7.548,10.363c4.931,0.82,9.591-2.467,10.494-7.362h0.003
				c0.001-0.004,0.001-0.009,0.001-0.013c0.001-0.005,0.002-0.01,0.003-0.015h-0.001C92.522,210.766,89.176,206.146,84.247,205.326z
				"/>
			<path d="M276.033,369.607L276.033,369.607c-0.005,0-0.01,0.002-0.014,0.003c-0.005,0.002-0.009,0.002-0.015,0.004h0.001
				c-4.765,1.441-7.515,6.438-6.151,11.247c1.36,4.81,6.324,7.622,11.136,6.352v0.002c0.005-0.002,0.01-0.003,0.014-0.004
				c0.007-0.001,0.011-0.001,0.016-0.003v-0.001c4.763-1.442,7.512-6.438,6.15-11.249
				C285.807,371.149,280.846,368.335,276.033,369.607z"/>
			<path d="M313.359,353.184L313.359,353.184c-0.005,0.001-0.009,0.005-0.013,0.007c-0.004,0.003-0.008,0.006-0.013,0.008h0.002
				c-4.163,2.729-5.393,8.299-2.728,12.527s8.218,5.525,12.478,2.948h0.001c0.003-0.003,0.008-0.005,0.011-0.007
				c0.004-0.004,0.009-0.006,0.013-0.008l0,0c4.162-2.729,5.39-8.299,2.726-12.527C323.171,351.902,317.616,350.605,313.359,353.184
				z"/>
			<path d="M344.749,326.995L344.749,326.995c-0.006,0.004-0.009,0.008-0.012,0.012c-0.002,0.003-0.006,0.006-0.009,0.009v0.002
				c-3.239,3.778-2.869,9.47,0.866,12.79c3.734,3.32,9.432,3.021,12.805-0.639l0,0c0.004-0.004,0.006-0.008,0.009-0.01
				c0.003-0.004,0.009-0.006,0.012-0.011h-0.001c3.238-3.778,2.867-9.471-0.866-12.791
				C353.818,323.036,348.121,323.335,344.749,326.995z"/>
			<path d="M367.838,293.151L367.838,293.151c-0.002,0.004-0.004,0.008-0.007,0.014c-0.001,0.004-0.005,0.006-0.007,0.012h0.001
				c-2.041,4.541-0.076,9.896,4.443,12.025s9.901,0.234,12.103-4.229l0.001,0.001c0.003-0.004,0.004-0.009,0.006-0.014
				c0.003-0.004,0.006-0.008,0.007-0.012l0,0c2.041-4.541,0.077-9.896-4.444-12.025C375.42,286.792,370.04,288.688,367.838,293.151z
				"/>
			<path d="M390.687,247.12c-4.931-0.82-9.591,2.467-10.496,7.361h-0.001c-0.001,0.004-0.001,0.01-0.002,0.014
				c0,0.004-0.002,0.01-0.002,0.015c-0.728,4.924,2.618,9.543,7.546,10.362c4.932,0.82,9.593-2.467,10.497-7.361h0.001
				c0.002-0.005,0.002-0.01,0.003-0.016c0-0.004,0.002-0.008,0.002-0.013h-0.001C398.963,252.559,395.616,247.939,390.687,247.12z"
				/>
			<path d="M275.999,100.607L275.999,100.607c0.005,0.002,0.011,0.003,0.014,0.004c0.006,0.001,0.009,0.003,0.014,0.004v-0.001
				c4.812,1.271,9.775-1.542,11.137-6.351c1.362-4.809-1.387-9.806-6.15-11.248v-0.001c-0.004-0.001-0.01-0.001-0.015-0.003
				s-0.009-0.003-0.014-0.004v0.001c-4.813-1.271-9.774,1.542-11.137,6.351C268.485,94.168,271.236,99.166,275.999,100.607z"/>
			<path d="M313.329,117.023h-0.002c0.007,0.003,0.011,0.005,0.014,0.008c0.005,0.002,0.008,0.004,0.012,0.008l0.001-0.002
				c4.258,2.579,9.813,1.282,12.477-2.946c2.664-4.229,1.438-9.799-2.725-12.528c-0.004-0.003-0.008-0.005-0.012-0.008
				c-0.004-0.002-0.008-0.006-0.013-0.008v0.001c-4.259-2.578-9.812-1.28-12.478,2.948
				C307.939,108.725,309.165,114.293,313.329,117.023z"/>
			<path d="M358.412,131.076L358.412,131.076c-0.002-0.004-0.006-0.008-0.008-0.011c-0.004-0.003-0.007-0.008-0.009-0.011
				l-0.001,0.001c-3.374-3.662-9.069-3.959-12.805-0.639c-3.734,3.32-4.106,9.011-0.865,12.79l-0.001,0.001
				c0.003,0.003,0.006,0.006,0.009,0.009c0.004,0.003,0.006,0.007,0.009,0.01h0.001c3.373,3.661,9.069,3.96,12.805,0.639
				C361.28,140.545,361.654,134.854,358.412,131.076z"/>
			<path d="M367.819,177.047c0.002,0.004,0.005,0.008,0.006,0.013c0.002,0.003,0.004,0.009,0.008,0.013h0.001
				c2.201,4.464,7.581,6.359,12.102,4.229s6.485-7.485,4.443-12.026c-0.001-0.005-0.004-0.009-0.005-0.012
				c-0.004-0.005-0.006-0.009-0.008-0.014l-0.001,0.001c-2.202-4.464-7.581-6.36-12.103-4.229
				C367.742,167.149,365.779,172.505,367.819,177.047L367.819,177.047z"/>
			<path d="M380.179,215.714c0.001,0.005,0.002,0.01,0.003,0.014s0.001,0.01,0.001,0.015l0.003-0.001
				c0.903,4.894,5.565,8.182,10.494,7.363c4.93-0.82,8.275-5.44,7.547-10.364h0.002c-0.001-0.005-0.003-0.009-0.003-0.013
				c-0.001-0.005-0.002-0.01-0.002-0.015h-0.001c-0.904-4.896-5.565-8.182-10.497-7.361
				C382.797,206.17,379.451,210.79,380.179,215.714L380.179,215.714z"/>
			<path d="M468.543,261.688c0,0-52.202-8.686-54.395-9.05c-2.192-0.365-3.309-1.402-3.309-1.402s-12.661-10.633-18.336-15.347
				c5.678-4.718,18.329-15.343,18.329-15.343s1.116-1.037,3.309-1.402c2.191-0.364,54.394-9.05,54.394-9.05
				c2.112-0.351,3.54-2.347,3.189-4.457c-0.35-2.111-2.347-3.536-4.459-3.186c0,0-25.709,4.276-26.979,4.487
				c-0.658,0.111-1.166-0.451-1.281-1.052c-0.086-0.606,0.212-1.3,0.873-1.41c1.268-0.212,26.976-4.488,26.976-4.488
				c2.114-0.351,3.54-2.346,3.189-4.456c-0.352-2.11-2.35-3.536-4.46-3.185c0,0-52.204,8.681-54.396,9.045
				c-2.191,0.364-3.584-0.254-3.584-0.254s-15.228-5.842-22.151-8.498c4.303-6.268,13.179-19.337,13.179-19.337
				s0.794-1.301,2.803-2.248c2.011-0.946,49.88-23.509,49.88-23.509c1.938-0.913,2.77-3.221,1.856-5.157
				c-0.912-1.935-3.222-2.763-5.159-1.851c0,0-23.575,11.11-24.737,11.658c-0.604,0.285-1.246-0.117-1.52-0.665
				c-0.248-0.56-0.149-1.31,0.455-1.594c1.162-0.548,24.737-11.658,24.737-11.658c1.938-0.914,2.769-3.221,1.855-5.156
				c-0.911-1.935-3.224-2.764-5.158-1.851c0,0-47.872,22.557-49.882,23.504c-2.011,0.947-3.52,0.729-3.52,0.729
				s-17.214-1.566-24.257-2.206c2.336-7.162,7.235-22.438,7.235-22.438s0.395-1.473,2.055-2.948
				c1.661-1.476,41.211-36.637,41.211-36.637c1.601-1.423,1.744-3.873,0.324-5.471c-1.421-1.599-3.869-1.743-5.471-0.32
				c0,0-19.479,17.315-20.439,18.169c-0.499,0.444-1.227,0.24-1.646-0.208c-0.396-0.467-0.515-1.214-0.015-1.658
				c0.961-0.854,20.439-18.169,20.439-18.169c1.602-1.423,1.745-3.871,0.323-5.471c-1.422-1.599-3.871-1.741-5.471-0.318
				c0,0-39.555,35.157-41.215,36.633c-1.66,1.476-3.169,1.694-3.169,1.694s-16.483,3.265-23.595,4.673
				c0.253-7.495,0.713-23.645,0.713-23.645s-0.031-1.524,1.153-3.403s29.396-46.653,29.396-46.653
				c1.141-1.812,0.601-4.205-1.212-5.344c-1.809-1.142-4.2-0.599-5.343,1.214c0,0-13.895,22.049-14.579,23.138
				c-0.356,0.565-1.113,0.571-1.639,0.258c-0.512-0.339-0.83-1.023-0.476-1.589c0.688-1.089,14.581-23.138,14.581-23.138
				c1.142-1.813,0.599-4.204-1.212-5.345c-1.809-1.14-4.202-0.596-5.343,1.215c0,0-28.217,44.771-29.399,46.651
				c-1.185,1.879-2.572,2.509-2.572,2.509s-14.76,7.634-21.257,10.995c-1.868-7.24-6.004-22.929-6.004-22.929
				s-0.461-1.453,0.146-3.591c0.604-2.137,15.022-53.055,15.022-53.055c0.585-2.059-0.61-4.203-2.669-4.785
				c-2.059-0.583-4.2,0.612-4.783,2.675c0,0-7.103,25.075-7.452,26.312c-0.183,0.643-0.906,0.862-1.499,0.71
				c-0.585-0.182-1.088-0.748-0.904-1.391c0.352-1.238,7.454-26.313,7.454-26.313c0.583-2.062-0.612-4.203-2.672-4.785
				c-2.058-0.583-4.199,0.615-4.783,2.674c0,0-14.425,50.917-15.029,53.054c-0.604,2.138-1.76,3.134-1.76,3.134
				s-11.574,11.082-16.993,16.271c-3.852-6.588-11.837-20.1-11.837-20.1s-0.839-1.273-0.839-3.495S244.76,6.938,244.76,6.938
				c0-2.14-1.734-3.876-3.873-3.876c-2.141,0-3.873,1.733-3.873,3.876c0,0,0,26.062,0,27.348c0,0.623-0.554,1.015-1.125,1.079
				c-0.571-0.063-1.124-0.456-1.124-1.079c0-1.286,0-27.348,0-27.348c0-2.143-1.733-3.876-3.873-3.876
				c-2.139,0-3.873,1.736-3.873,3.876c0,0-0.003,52.92-0.003,55.142s-0.839,3.495-0.839,3.495s-7.986,13.512-11.837,20.1
				c-5.419-5.189-16.993-16.271-16.993-16.271s-1.155-0.996-1.76-3.134c-0.605-2.137-15.029-53.054-15.029-53.054
				c-0.584-2.059-2.727-3.257-4.783-2.674c-2.06,0.583-3.255,2.723-2.672,4.785c0,0,7.103,25.074,7.454,26.313
				c0.183,0.643-0.319,1.209-0.904,1.391c-0.593,0.152-1.317-0.067-1.499-0.71c-0.351-1.237-7.453-26.312-7.453-26.312
				c-0.583-2.063-2.725-3.258-4.783-2.675c-2.058,0.583-3.254,2.726-2.669,4.785c0,0,14.419,50.918,15.023,53.055
				c0.605,2.138,0.145,3.591,0.145,3.591s-4.136,15.689-6.004,22.929c-6.497-3.36-21.257-10.995-21.257-10.995
				s-1.388-0.629-2.572-2.509c-1.183-1.88-29.399-46.651-29.399-46.651c-1.141-1.811-3.534-2.355-5.343-1.215
				c-1.811,1.141-2.354,3.532-1.212,5.345c0,0,13.895,22.049,14.581,23.138c0.355,0.565,0.036,1.25-0.475,1.589
				c-0.525,0.313-1.282,0.308-1.639-0.258C124.411,65.049,110.518,43,110.518,43c-1.143-1.813-3.534-2.355-5.343-1.214
				c-1.812,1.14-2.352,3.533-1.212,5.344c0,0,28.211,44.774,29.396,46.653c1.185,1.879,1.153,3.403,1.153,3.403
				s0.46,16.15,0.713,23.645c-7.111-1.409-23.595-4.673-23.595-4.673s-1.509-0.218-3.169-1.694
				c-1.66-1.476-41.21-36.632-41.21-36.632c-1.599-1.422-4.049-1.28-5.47,0.318c-1.422,1.6-1.278,4.047,0.323,5.471
				c0,0,19.479,17.315,20.439,18.169c0.5,0.444,0.382,1.191-0.014,1.658c-0.419,0.448-1.146,0.653-1.646,0.208
				c-0.961-0.854-20.439-18.169-20.439-18.169c-1.602-1.423-4.05-1.279-5.471,0.32c-1.42,1.598-1.275,4.048,0.324,5.471
				c0,0,39.55,35.161,41.211,36.637c1.66,1.476,2.055,2.948,2.055,2.948s4.899,15.276,7.235,22.438
				c-7.043,0.64-24.257,2.206-24.257,2.206s-1.508,0.217-3.519-0.729c-2.01-0.948-49.882-23.504-49.882-23.504
				c-1.936-0.913-4.247-0.084-5.158,1.851c-0.912,1.935-0.083,4.243,1.855,5.156c0,0,23.575,11.11,24.738,11.658
				c0.604,0.284,0.703,1.034,0.455,1.594c-0.273,0.548-0.915,0.95-1.52,0.665c-1.162-0.548-24.737-11.658-24.737-11.658
				c-1.938-0.912-4.247-0.084-5.159,1.851c-0.912,1.936-0.081,4.244,1.856,5.157c0,0,47.869,22.562,49.88,23.509
				c2.009,0.947,2.803,2.248,2.803,2.248s8.876,13.069,13.178,19.337c-6.924,2.656-22.151,8.498-22.151,8.498
				s-1.393,0.618-3.584,0.254C58.405,201.03,6.2,192.349,6.2,192.349c-2.111-0.351-4.109,1.075-4.46,3.185
				c-0.351,2.11,1.075,4.105,3.189,4.456c0,0,25.708,4.276,26.976,4.488c0.661,0.11,0.959,0.804,0.873,1.41
				c-0.116,0.602-0.623,1.163-1.282,1.052c-1.269-0.21-26.978-4.487-26.978-4.487c-2.112-0.351-4.109,1.074-4.459,3.186
				c-0.351,2.11,1.077,4.105,3.189,4.457c0,0,52.202,8.686,54.394,9.05c2.191,0.365,3.309,1.402,3.309,1.402
				s12.651,10.625,18.329,15.343c-5.675,4.714-18.336,15.347-18.336,15.347s-1.117,1.037-3.309,1.402
				c-2.192,0.365-54.394,9.05-54.394,9.05c-2.111,0.351-3.54,2.347-3.188,4.458c0.351,2.11,2.346,3.536,4.46,3.186
				c0,0,25.707-4.276,26.978-4.487c0.659-0.108,1.166,0.45,1.281,1.052c0.085,0.605-0.213,1.301-0.873,1.41
				c-1.268,0.212-26.977,4.488-26.977,4.488c-2.113,0.351-3.54,2.346-3.188,4.455c0.35,2.111,2.347,3.537,4.458,3.186
				c0,0,52.204-8.68,54.396-9.045c2.192-0.364,3.584,0.254,3.584,0.254s15.229,5.842,22.152,8.498
				c-4.303,6.268-13.179,19.337-13.179,19.337s-0.793,1.302-2.803,2.248c-2.011,0.947-49.879,23.509-49.879,23.509
				c-1.937,0.912-2.769,3.221-1.856,5.157c0.912,1.935,3.22,2.765,5.158,1.851c0,0,23.575-11.109,24.738-11.658
				c0.604-0.284,1.245,0.117,1.52,0.666c0.247,0.56,0.149,1.31-0.455,1.594c-1.164,0.548-24.738,11.658-24.738,11.658
				c-1.939,0.914-2.768,3.221-1.855,5.156c0.911,1.935,3.222,2.764,5.157,1.851c0,0,47.872-22.558,49.883-23.504
				c2.01-0.947,3.518-0.729,3.518-0.729s17.216,1.566,24.258,2.206c-2.337,7.162-7.236,22.438-7.236,22.438
				s-0.394,1.472-2.054,2.947c-1.662,1.477-41.211,36.638-41.211,36.638c-1.6,1.423-1.745,3.873-0.324,5.471
				c1.422,1.599,3.868,1.743,5.471,0.32c0,0,19.479-17.315,20.439-18.169c0.498-0.445,1.227-0.24,1.646,0.207
				c0.396,0.468,0.513,1.215,0.014,1.658c-0.962,0.854-20.439,18.17-20.439,18.17c-1.602,1.423-1.745,3.87-0.324,5.471
				c1.421,1.599,3.871,1.741,5.471,0.318c0,0,39.554-35.158,41.214-36.633c1.661-1.477,3.169-1.695,3.169-1.695
				s16.483-3.264,23.595-4.672c-0.251,7.496-0.712,23.645-0.712,23.645s0.03,1.523-1.153,3.403
				c-1.183,1.879-29.396,46.652-29.396,46.652c-1.141,1.812-0.6,4.205,1.211,5.346c1.81,1.141,4.2,0.598,5.344-1.215
				c0,0,13.893-22.049,14.58-23.138c0.355-0.563,1.111-0.571,1.638-0.258c0.51,0.339,0.83,1.023,0.475,1.589
				c-0.686,1.089-14.58,23.138-14.58,23.138c-1.142,1.813-0.6,4.204,1.211,5.346c1.809,1.14,4.202,0.597,5.343-1.215
				c0,0,28.216-44.771,29.4-46.651c1.183-1.879,2.572-2.509,2.572-2.509s14.759-7.635,21.255-10.995
				c1.869,7.24,6.006,22.929,6.006,22.929s0.461,1.453-0.146,3.591c-0.605,2.138-15.024,53.056-15.024,53.056
				c-0.584,2.059,0.611,4.203,2.67,4.784c2.058,0.583,4.199-0.611,4.783-2.675c0,0,7.102-25.075,7.453-26.312
				c0.181-0.644,0.905-0.862,1.499-0.71c0.584,0.182,1.086,0.748,0.903,1.391c-0.351,1.238-7.453,26.313-7.453,26.313
				c-0.583,2.062,0.613,4.202,2.671,4.786c2.059,0.581,4.2-0.616,4.783-2.676c0,0,14.425-50.917,15.029-53.054
				c0.605-2.138,1.76-3.134,1.76-3.134s11.574-11.082,16.995-16.271c3.85,6.588,11.837,20.101,11.837,20.101
				s0.839,1.272,0.839,3.495c0,0.26,0,1.216,0,2.702c0,0.693,0,1.501,0,2.409c0,0.13,0,0.263,0,0.396
				c0,14.022,0.002,49.634,0.002,49.634c0,1.872,1.327,3.437,3.093,3.798c0.251,0.052,0.514,0.079,0.78,0.079
				c0.067,0,0.133-0.001,0.199-0.005c1.783-0.091,3.247-1.385,3.596-3.09c0.052-0.252,0.079-0.515,0.079-0.782
				c0,0,0-26.062,0-27.348c0-0.625,0.556-1.02,1.129-1.079c0.573,0.06,1.129,0.454,1.129,1.079c0,1.286,0,27.348,0,27.348
				c0,0.268,0.027,0.529,0.079,0.782c0.349,1.705,1.812,2.999,3.596,3.09c0.066,0.003,0.132,0.005,0.199,0.005
				c0.267,0,0.529-0.027,0.78-0.079c1.766-0.361,3.093-1.926,3.093-3.798c0,0,0.002-35.611,0.002-49.634c0-0.134,0-0.267,0-0.396
				c0-0.907,0-1.716,0-2.409c0-1.486,0-2.442,0-2.702c0-2.223,0.839-3.495,0.839-3.495s7.987-13.513,11.837-20.101
				c5.421,5.189,16.995,16.271,16.995,16.271s1.154,0.996,1.76,3.134c0.604,2.137,15.029,53.054,15.029,53.054
				c0.583,2.06,2.726,3.257,4.783,2.676c2.058-0.584,3.254-2.725,2.671-4.786c0,0-7.103-25.074-7.453-26.313
				c-0.183-0.643,0.319-1.209,0.903-1.391c0.594-0.152,1.317,0.066,1.499,0.71c0.352,1.236,7.453,26.312,7.453,26.312
				c0.584,2.063,2.726,3.258,4.782,2.675c2.06-0.583,3.255-2.726,2.671-4.784c0,0-14.419-50.918-15.024-53.056
				c-0.606-2.138-0.146-3.591-0.146-3.591s4.138-15.688,6.007-22.929c6.496,3.359,21.255,10.995,21.255,10.995
				s1.39,0.629,2.572,2.509c1.185,1.88,29.399,46.651,29.399,46.651c1.141,1.812,3.534,2.354,5.343,1.215
				c1.812-1.142,2.354-3.532,1.211-5.346c0,0-13.895-22.049-14.58-23.138c-0.354-0.564-0.034-1.25,0.476-1.589
				c0.526-0.313,1.282-0.307,1.638,0.258c0.688,1.089,14.58,23.138,14.58,23.138c1.145,1.813,3.534,2.355,5.344,1.215
				c1.812-1.141,2.353-3.534,1.211-5.346c0,0-28.212-44.773-29.396-46.652c-1.185-1.88-1.153-3.403-1.153-3.403
				s-0.461-16.148-0.712-23.645c7.111,1.408,23.595,4.672,23.595,4.672s1.509,0.219,3.169,1.695
				c1.66,1.475,41.215,36.632,41.215,36.632c1.6,1.423,4.05,1.28,5.471-0.317c1.421-1.601,1.277-4.047-0.324-5.471
				c0,0-19.478-17.315-20.438-18.17c-0.499-0.443-0.383-1.19,0.014-1.658c0.419-0.447,1.146-0.652,1.646-0.207
				c0.962,0.854,20.439,18.169,20.439,18.169c1.603,1.423,4.049,1.278,5.471-0.32c1.421-1.598,1.275-4.048-0.323-5.471
				c0,0-39.55-35.161-41.212-36.638c-1.659-1.476-2.054-2.947-2.054-2.947s-4.898-15.277-7.236-22.438
				c7.043-0.64,24.259-2.206,24.259-2.206s1.508-0.217,3.518,0.729c2.011,0.948,49.883,23.504,49.883,23.504
				c1.937,0.913,4.246,0.084,5.157-1.851c0.912-1.936,0.084-4.244-1.854-5.156c0,0-23.574-11.11-24.738-11.658
				c-0.604-0.284-0.702-1.034-0.455-1.594c0.274-0.549,0.916-0.95,1.52-0.666c1.163,0.549,24.738,11.658,24.738,11.658
				c1.938,0.914,4.246,0.084,5.158-1.851c0.912-1.937,0.08-4.245-1.856-5.157c0,0-47.867-22.562-49.879-23.509
				c-2.01-0.946-2.803-2.248-2.803-2.248s-8.876-13.069-13.179-19.337c6.923-2.656,22.151-8.498,22.151-8.498
				s1.393-0.618,3.584-0.254c2.191,0.365,54.396,9.045,54.396,9.045c2.111,0.352,4.107-1.075,4.458-3.186
				c0.353-2.109-1.074-4.104-3.188-4.455c0,0-25.709-4.276-26.977-4.488c-0.66-0.109-0.958-0.805-0.873-1.41
				c0.115-0.602,0.622-1.162,1.281-1.052c1.271,0.21,26.978,4.487,26.978,4.487c2.114,0.352,4.109-1.074,4.46-3.186
				C472.083,264.036,470.654,262.04,468.543,261.688z M402.257,254.687c-0.672,0.656-1.618,2.014-2.107,4.675
				c-0.003,0.024-0.006,0.046-0.009,0.068c-0.004,0.022-0.009,0.044-0.014,0.067c-0.397,2.678,0.057,4.268,0.479,5.106
				c0.505,0.838,0.256,0.886-0.411,1.134c-0.521,0.194-18.482,6.883-20.923,7.791c-0.06,0.022-0.119,0.042-0.177,0.066
				c-0.062,0.023-0.104,0.039-0.104,0.039l-0.006,0.017c-1.451,0.653-2.462,2.035-2.462,3.648c0,0.753,0.233,1.448,0.613,2.053
				l-0.007,0.021c0,0,12.208,18.34,12.615,18.924c0.409,0.584,0.585,0.765-0.307,1.166c-0.826,0.449-2.105,1.498-3.3,3.927
				c-0.012,0.022-0.02,0.042-0.027,0.063c-0.011,0.02-0.021,0.039-0.031,0.062c-1.111,2.468-1.106,4.122-0.928,5.044
				c0.257,0.943,0.005,0.922-0.704,0.979c-0.709,0.058-23.531,1.92-23.531,1.92l-0.015,0.021c-2.229,0.16-3.989,1.891-3.989,4.025
				c0,0.38,0.073,0.742,0.179,1.091l-0.015,0.019c0,0,7.447,20.947,7.673,21.622c0.229,0.675,0.347,0.899-0.622,1.033
				c-0.92,0.198-2.441,0.842-4.275,2.835c-0.015,0.02-0.028,0.035-0.043,0.053c-0.016,0.016-0.03,0.032-0.047,0.049
				c-1.765,2.056-2.226,3.643-2.314,4.578c-0.02,0.978-0.255,0.885-0.953,0.739c-0.693-0.146-22.152-4.664-22.152-4.664
				l-0.015,0.011c-0.343-0.084-0.694-0.141-1.064-0.141c-2.385,0-4.317,1.816-4.317,4.057c0,0,0.905,22.162,0.938,22.873
				c0.027,0.711,0.081,0.959-0.889,0.819c-0.938-0.065-2.58,0.129-4.895,1.534c-0.021,0.012-0.037,0.025-0.057,0.039
				c-0.02,0.01-0.038,0.021-0.06,0.035c-2.266,1.48-3.148,2.877-3.496,3.752c-0.291,0.934-0.491,0.779-1.121,0.445
				c-0.629-0.334-19.792-10.52-19.792-10.52l-0.014,0.006c-0.654-0.375-1.414-0.604-2.236-0.604c-2.105,0-3.854,1.418-4.234,3.293
				l-0.005,0.002c0,0-5.241,21.044-5.414,21.734s-0.192,0.943-1.082,0.535c-0.88-0.328-2.512-0.604-5.129,0.09
				c-0.021,0.006-0.044,0.015-0.064,0.021c-0.021,0.006-0.043,0.011-0.065,0.017c-2.592,0.782-3.835,1.872-4.414,2.613
				c-0.544,0.813-0.691,0.609-1.2,0.111c-0.413-0.405-11.658-11.417-15.765-15.435c-0.003-0.005-0.021-0.009-0.024-0.014
				c-0.787-0.784-1.896-1.279-3.133-1.279c-1.594,0-2.971,0.82-3.718,2.027c-0.014,0.015-0.039,0.028-0.047,0.044
				c0,0-10.688,18.548-11.043,19.166c-0.198,0.347-0.313,0.574-0.509,0.593c-0.087,0.008-0.189-0.023-0.321-0.104
				c-0.1-0.062-0.217-0.15-0.354-0.271c-0.713-0.52-2.068-1.177-4.467-1.295c-0.144-0.006-0.741-0.006-0.885,0
				c-2.397,0.118-3.754,0.775-4.466,1.295c-0.139,0.12-0.256,0.208-0.355,0.271c-0.132,0.08-0.234,0.112-0.321,0.104
				c-0.195-0.02-0.311-0.246-0.509-0.593c-0.354-0.618-11.043-19.166-11.043-19.166c-0.008-0.016-0.033-0.03-0.047-0.044
				c-0.747-1.207-2.124-2.027-3.718-2.027c-1.236,0-2.345,0.496-3.132,1.279c-0.005,0.005-0.022,0.009-0.025,0.014
				c-4.105,4.017-15.351,15.028-15.765,15.435c-0.508,0.497-0.656,0.702-1.2-0.111c-0.579-0.741-1.822-1.832-4.414-2.613
				c-0.022-0.006-0.045-0.011-0.065-0.017c-0.021-0.006-0.043-0.015-0.065-0.021c-2.617-0.693-4.248-0.418-5.128-0.09
				c-0.89,0.408-0.91,0.156-1.082-0.535c-0.173-0.69-5.414-21.734-5.414-21.734l-0.005-0.002c-0.381-1.875-2.129-3.293-4.235-3.293
				c-0.822,0-1.582,0.229-2.236,0.604l-0.014-0.006c0,0-19.163,10.186-19.792,10.52c-0.63,0.334-0.83,0.488-1.121-0.445
				c-0.347-0.875-1.23-2.271-3.496-3.752c-0.021-0.014-0.04-0.024-0.059-0.035c-0.02-0.014-0.036-0.026-0.057-0.039
				c-2.314-1.405-3.956-1.602-4.895-1.534c-0.969,0.142-0.916-0.106-0.888-0.819c0.031-0.711,0.937-22.873,0.937-22.873
				c0-2.24-1.933-4.057-4.317-4.057c-0.37,0-0.723,0.057-1.065,0.141l-0.014-0.011c0,0-21.459,4.519-22.153,4.664
				c-0.698,0.146-0.934,0.238-0.953-0.739c-0.09-0.937-0.551-2.522-2.314-4.578c-0.017-0.018-0.031-0.033-0.047-0.049
				c-0.015-0.018-0.028-0.033-0.043-0.053c-1.834-1.993-3.356-2.637-4.275-2.835c-0.969-0.134-0.851-0.356-0.623-1.033
				c0.226-0.675,7.673-21.622,7.673-21.622l-0.014-0.019c0.104-0.349,0.178-0.71,0.178-1.091c0-2.135-1.761-3.865-3.989-4.025
				l-0.015-0.021c0,0-22.822-1.862-23.531-1.92c-0.709-0.057-0.961-0.035-0.704-0.979c0.18-0.922,0.185-2.576-0.928-5.044
				c-0.011-0.021-0.021-0.042-0.031-0.062c-0.009-0.021-0.016-0.041-0.027-0.063c-1.194-2.429-2.474-3.478-3.3-3.927
				c-0.892-0.402-0.716-0.582-0.307-1.166c0.408-0.584,12.616-18.924,12.616-18.924l-0.007-0.021c0.38-0.604,0.613-1.3,0.613-2.054
				c0-1.613-1.011-2.994-2.462-3.647l-0.006-0.017c0,0-0.042-0.016-0.104-0.039c-0.058-0.024-0.117-0.044-0.177-0.066
				c-2.439-0.908-20.402-7.597-20.923-7.791c-0.667-0.248-0.916-0.295-0.411-1.134c0.424-0.839,0.878-2.429,0.48-5.106
				c-0.005-0.023-0.01-0.045-0.014-0.067c-0.003-0.022-0.006-0.044-0.009-0.068c-0.489-2.663-1.436-4.019-2.107-4.675
				c-0.749-0.631-0.529-0.757,0.021-1.207c0.552-0.45,17.939-14.689,17.939-14.689c0.004-0.004,0.006-0.01,0.01-0.013
				c0.796-0.735,1.292-1.757,1.292-2.889c0-1.231-0.597-2.321-1.519-3.065c-0.002-0.008-0.005-0.026-0.005-0.026
				s-17.161-14.043-17.711-14.494c-0.551-0.45-0.771-0.576-0.022-1.207c0.673-0.656,1.618-2.013,2.107-4.675
				c0.003-0.023,0.006-0.045,0.009-0.068c0.005-0.022,0.009-0.044,0.013-0.066c0.399-2.679-0.055-4.268-0.479-5.107
				c-0.505-0.838-0.257-0.886,0.41-1.134c0.503-0.187,17.649-6.579,21.112-7.87c0.159-0.051,0.313-0.105,0.464-0.173
				c0.09-0.033,0.15-0.056,0.15-0.056l0.008-0.025c1.365-0.681,2.306-2.015,2.306-3.568c0-0.67-0.189-1.293-0.496-1.851l0.008-0.024
				c0,0-0.048-0.07-0.134-0.194c-0.069-0.109-0.14-0.215-0.219-0.317c-2.044-2.964-12.383-17.955-12.752-18.48
				c-0.407-0.584-0.584-0.765,0.309-1.167c0.826-0.449,2.104-1.497,3.299-3.926c0.011-0.021,0.019-0.041,0.027-0.062
				c0.01-0.02,0.021-0.04,0.031-0.062c1.113-2.468,1.106-4.121,0.929-5.044c-0.258-0.943-0.007-0.922,0.703-0.979
				c0.709-0.057,23.093-1.858,23.093-1.858l0.024-0.033c2.22-0.169,3.97-1.895,3.97-4.022c0-0.362-0.066-0.707-0.161-1.041
				l0.013-0.017c0,0-7.014-21.051-7.24-21.726c-0.228-0.675-0.346-0.899,0.623-1.033c0.92-0.198,2.442-0.842,4.275-2.835
				c0.015-0.018,0.029-0.035,0.043-0.052c0.016-0.017,0.031-0.033,0.047-0.05c1.765-2.055,2.226-3.642,2.315-4.577
				c0.019-0.978,0.255-0.886,0.951-0.74c0.692,0.145,22.099,4.67,22.373,4.728c0.284,0.056,0.579,0.086,0.881,0.086
				c2.385,0,4.317-1.816,4.317-4.056c0,0-0.926-22.183-0.956-22.894c-0.03-0.712-0.081-0.96,0.887-0.819
				c0.938,0.066,2.58-0.129,4.894-1.534c0.021-0.012,0.039-0.025,0.059-0.039c0.018-0.01,0.038-0.021,0.059-0.033
				c2.265-1.482,3.149-2.879,3.495-3.753c0.291-0.934,0.491-0.78,1.12-0.446c0.63,0.334,19.941,10.578,19.941,10.578l0.022-0.01
				c0.617,0.319,1.314,0.517,2.068,0.517c2.059,0,3.774-1.356,4.206-3.167l0.008-0.003c0,0,5.279-21.136,5.451-21.826
				c0.172-0.691,0.192-0.943,1.081-0.535c0.882,0.328,2.512,0.604,5.13-0.09c0.021-0.006,0.043-0.014,0.064-0.02
				c0.021-0.006,0.043-0.011,0.065-0.017c2.593-0.782,3.836-1.872,4.414-2.613c0.543-0.814,0.693-0.609,1.201-0.111
				c0.414,0.405,15.851,15.571,15.851,15.571c0.782,0.739,1.863,1.197,3.06,1.197c1.524,0,2.856-0.746,3.625-1.866l0.009-0.001
				c0,0,10.831-18.793,11.186-19.411c0.354-0.618,0.441-0.855,1.186-0.22c0.752,0.551,2.231,1.253,4.901,1.308
				c2.67-0.055,4.149-0.757,4.901-1.308c0.744-0.636,0.832-0.398,1.187,0.22c0.354,0.617,11.186,19.411,11.186,19.411l0.009,0.001
				c0.77,1.12,2.102,1.866,3.625,1.866c1.196,0,2.277-0.458,3.061-1.197c0,0,15.437-15.166,15.851-15.571
				c0.508-0.498,0.658-0.703,1.201,0.111c0.578,0.741,1.821,1.832,4.414,2.613c0.022,0.006,0.044,0.011,0.065,0.017
				c0.021,0.006,0.043,0.014,0.063,0.02c2.618,0.694,4.248,0.418,5.131,0.09c0.889-0.408,0.908-0.156,1.08,0.535
				c0.173,0.69,5.451,21.826,5.451,21.826l0.008,0.003c0.433,1.811,2.147,3.167,4.206,3.167c0.754,0,1.451-0.198,2.068-0.517
				l0.022,0.01c0,0,19.312-10.244,19.94-10.578s0.829-0.488,1.12,0.446c0.346,0.874,1.23,2.271,3.495,3.753
				c0.021,0.011,0.041,0.023,0.059,0.033c0.021,0.014,0.038,0.026,0.06,0.039c2.312,1.405,3.956,1.601,4.894,1.534
				c0.968-0.141,0.917,0.107,0.887,0.819c-0.029,0.71-0.956,22.894-0.956,22.894c0,2.24,1.934,4.056,4.317,4.056
				c0.302,0,0.597-0.03,0.881-0.086c0.274-0.058,21.682-4.583,22.373-4.728c0.696-0.146,0.934-0.238,0.951,0.74
				c0.09,0.936,0.551,2.522,2.315,4.577c0.016,0.018,0.03,0.033,0.047,0.05c0.014,0.017,0.027,0.034,0.043,0.052
				c1.833,1.993,3.354,2.637,4.274,2.835c0.97,0.134,0.852,0.357,0.623,1.033c-0.227,0.675-7.239,21.726-7.239,21.726l0.013,0.017
				c-0.095,0.334-0.161,0.679-0.161,1.041c0,2.128,1.75,3.854,3.97,4.022l0.024,0.033c0,0,22.384,1.802,23.093,1.858
				c0.71,0.057,0.961,0.036,0.703,0.979c-0.178,0.923-0.186,2.576,0.929,5.044c0.011,0.021,0.021,0.042,0.031,0.062
				c0.009,0.021,0.017,0.041,0.027,0.062c1.194,2.43,2.473,3.477,3.299,3.926c0.893,0.403,0.716,0.583,0.309,1.167
				c-0.369,0.525-10.708,15.516-12.752,18.48c-0.079,0.102-0.148,0.208-0.219,0.317c-0.086,0.125-0.134,0.194-0.134,0.194
				l0.008,0.024c-0.308,0.557-0.496,1.18-0.496,1.851c0,1.553,0.939,2.887,2.306,3.568l0.008,0.025c0,0,0.062,0.023,0.15,0.056
				c0.15,0.067,0.305,0.122,0.464,0.173c3.463,1.291,20.609,7.683,21.112,7.87c0.667,0.248,0.915,0.296,0.41,1.134
				c-0.424,0.84-0.878,2.429-0.479,5.107c0.004,0.022,0.008,0.044,0.013,0.066c0.004,0.022,0.007,0.045,0.01,0.068
				c0.488,2.663,1.435,4.019,2.106,4.675c0.748,0.631,0.528,0.757-0.021,1.207c-0.55,0.45-17.711,14.494-17.711,14.494
				s-0.003,0.018-0.005,0.026c-0.923,0.744-1.52,1.833-1.52,3.065c0,1.132,0.496,2.153,1.292,2.889
				c0.004,0.003,0.006,0.009,0.01,0.013c0,0,17.389,14.239,17.939,14.689C402.786,253.93,403.006,254.056,402.257,254.687z"/>
		</g>
	</g>
</g>
<g>
</g>
<g>
</g>
<g>
</g>
<g>
</g>
<g>
</g>
<g>
</g>
<g>
</g>
<g>
</g>
<g>
</g>
<g>
</g>
<g>
</g>
<g>
</g>
<g>
</g>
<g>
</g>
<g>
</g>
</svg>
