<?xml version="1.0" encoding="iso-8859-1"?>
<!-- Generator: Adobe Illustrator 19.0.0, SVG Export Plug-In . SVG Version: 6.00 Build 0)  -->
<svg version="1.1" id="Capa_1" xmlns="http://www.w3.org/2000/svg" xmlns:xlink="http://www.w3.org/1999/xlink" x="0px" y="0px"
	 viewBox="0 0 512 512" style="enable-background:new 0 0 512 512;" xml:space="preserve">
<g>
	<g>
		<path d="M437.02,74.98C388.668,26.629,324.38,0,256,0S123.332,26.629,74.98,74.98C26.628,123.331,0,187.62,0,256
			s26.629,132.668,74.98,181.02C123.331,485.372,187.62,512,256,512s132.668-26.629,181.02-74.98
			C485.372,388.669,512,324.38,512,256S485.371,123.332,437.02,74.98z M256,497C123.112,497,15,388.888,15,256S123.112,15,256,15
			s241,108.112,241,241S388.888,497,256,497z"/>
	</g>
</g>
<g>
	<g>
		<path d="M415.806,96.194C373.12,53.508,316.366,30,256,30c-54.612,0-107.336,19.748-148.458,55.606
			c-3.122,2.722-3.446,7.46-0.724,10.581c2.722,3.123,7.461,3.447,10.581,0.724C155.79,63.436,205.013,45,256,45
			c116.346,0,211,94.654,211,211s-94.654,211-211,211S45,372.346,45,256c0-50.987,18.436-100.209,51.91-138.6
			c2.723-3.121,2.398-7.859-0.724-10.581c-3.12-2.724-7.859-2.399-10.581,0.724C49.748,148.665,30,201.388,30,256
			c0,60.367,23.508,117.121,66.194,159.807C138.88,458.492,195.633,482,256,482s117.12-23.508,159.806-66.193
			C458.492,373.121,482,316.367,482,256C482,195.634,458.492,138.88,415.806,96.194z"/>
	</g>
</g>
<g>
	<g>
		<path d="M226,139h-60c-4.143,0-7.5,3.357-7.5,7.5v159c0,4.143,3.357,7.5,7.5,7.5s7.5-3.357,7.5-7.5V154h45v204h-45v-22.5
			c0-4.143-3.357-7.5-7.5-7.5s-7.5,3.357-7.5,7.5v30c0,4.143,3.357,7.5,7.5,7.5h60c4.143,0,7.5-3.357,7.5-7.5v-219
			C233.5,142.357,230.143,139,226,139z"/>
	</g>
</g>
<g>
	<g>
		<path d="M346,139h-60c-4.143,0-7.5,3.357-7.5,7.5v219c0,4.143,3.357,7.5,7.5,7.5h60c4.143,0,7.5-3.357,7.5-7.5v-219
			C353.5,142.357,350.143,139,346,139z M338.5,358h-45V154h45V358z"/>
	</g>
</g>
<g>
</g>
<g>
</g>
<g>
</g>
<g>
</g>
<g>
</g>
<g>
</g>
<g>
</g>
<g>
</g>
<g>
</g>
<g>
</g>
<g>
</g>
<g>
</g>
<g>
</g>
<g>
</g>
<g>
</g>
</svg>
