<?xml version="1.0" standalone="no"?>
<!DOCTYPE svg PUBLIC "-//W3C//DTD SVG 20010904//EN"
 "http://www.w3.org/TR/2001/REC-SVG-20010904/DTD/svg10.dtd">
<svg version="1.0" xmlns="http://www.w3.org/2000/svg"
 width="50" height="50" viewBox="0 0 1280.000000 1262.000000"
 preserveAspectRatio="xMidYMid meet">
<metadata>
Created by potrace 1.15, written by Peter Selinger 2001-2017
</metadata>
<g transform="translate(0.000000,1262.000000) scale(0.100000,-0.100000)"
fill="#a9f8e4" stroke="none">
<path d="M6528 12610 c-82 -14 -175 -50 -222 -86 -97 -74 -112 -161 -57 -329
45 -139 49 -182 21 -239 -43 -90 -243 -234 -490 -353 -85 -41 -249 -121 -365
-178 -115 -58 -221 -107 -235 -109 -14 -3 -178 -15 -365 -27 -293 -19 -357
-21 -465 -11 -223 21 -433 81 -460 132 -7 13 -14 61 -15 107 -6 140 -51 210
-171 265 -42 19 -66 23 -164 23 -106 0 -119 -2 -166 -27 -68 -36 -138 -115
-164 -186 -32 -84 -25 -206 15 -280 44 -81 135 -142 258 -173 28 -7 47 -17 47
-26 0 -35 -51 -106 -144 -203 -202 -208 -373 -425 -520 -657 l-58 -92 -111
-36 c-164 -54 -278 -113 -382 -200 -49 -41 -137 -113 -195 -160 -117 -96 -254
-172 -289 -160 -25 8 -52 57 -75 139 -21 71 -88 148 -168 191 -65 35 -154 39
-236 11 -79 -27 -163 -109 -210 -205 -36 -73 -37 -80 -37 -181 0 -90 3 -111
23 -147 38 -73 82 -108 177 -142 48 -17 101 -41 117 -53 34 -24 34 -39 4 -203
-10 -50 -17 -139 -17 -200 0 -275 -50 -561 -155 -904 -50 -160 -82 -229 -187
-400 -117 -191 -136 -229 -202 -391 -69 -172 -146 -331 -207 -428 l-41 -63
-31 30 c-52 50 -147 84 -253 89 -81 4 -97 2 -145 -21 -70 -31 -124 -85 -157
-156 -22 -48 -26 -69 -26 -151 0 -86 3 -101 31 -160 38 -79 92 -135 161 -167
50 -23 59 -24 238 -21 l187 3 53 -57 c77 -82 152 -201 243 -383 44 -88 112
-208 151 -267 83 -127 113 -184 135 -257 15 -53 15 -54 -8 -82 -48 -56 -57
-218 -31 -536 18 -226 22 -488 7 -525 -14 -34 -42 -36 -103 -8 -55 25 -220 28
-274 6 -62 -26 -137 -153 -156 -265 -20 -110 16 -213 104 -300 63 -63 154
-110 229 -118 97 -10 226 44 303 127 112 120 201 76 624 -308 69 -63 164 -143
211 -178 79 -60 226 -143 278 -156 18 -5 22 -13 22 -42 0 -49 18 -89 81 -183
29 -42 93 -154 142 -248 124 -236 147 -272 265 -418 57 -71 102 -130 100 -131
-1 -2 -45 -15 -96 -30 -121 -34 -166 -58 -201 -106 -42 -58 -55 -116 -49 -223
9 -146 67 -266 151 -306 52 -25 271 -43 347 -29 113 21 182 101 203 236 19
115 50 143 186 162 139 20 345 -9 761 -105 100 -23 194 -38 265 -42 l110 -6
214 -129 c118 -71 309 -177 425 -235 218 -109 303 -162 370 -231 l39 -41 -48
-63 c-86 -114 -119 -204 -119 -323 0 -62 5 -89 21 -120 49 -93 137 -144 263
-152 160 -11 304 48 358 147 23 43 24 50 16 155 -5 61 -8 153 -9 205 0 160 29
191 217 229 150 31 686 233 947 357 63 30 126 54 140 54 14 0 69 -13 122 -29
149 -45 244 -52 650 -50 201 1 372 -1 378 -6 18 -11 7 -61 -41 -183 -31 -79
-39 -112 -35 -139 24 -144 287 -297 451 -263 191 39 336 144 372 267 21 72 15
171 -15 238 -12 27 -43 83 -69 125 -87 136 -90 162 -34 229 21 25 125 154 232
286 380 472 618 738 667 748 36 7 204 109 353 214 63 44 157 106 208 138 123
75 279 192 363 271 38 35 77 64 87 64 24 0 54 -33 82 -90 50 -100 110 -180
157 -210 39 -25 57 -30 108 -30 105 0 231 48 292 112 58 61 76 118 81 258 3
75 0 142 -7 167 -16 59 -79 111 -190 157 -103 43 -145 69 -175 109 -19 26 -21
44 -24 240 -2 127 3 306 12 447 9 129 16 312 16 406 0 212 3 228 46 253 42 25
137 153 191 256 22 44 62 139 88 210 126 344 150 405 186 476 46 93 84 139
112 139 12 0 62 -25 112 -55 113 -70 171 -89 241 -82 91 9 207 85 246 160 60
119 10 375 -95 485 -68 72 -122 83 -263 58 -149 -27 -171 -28 -208 -11 -54 26
-89 85 -166 285 -18 47 -98 229 -177 405 -80 176 -169 377 -198 447 l-54 126
15 84 c28 150 8 365 -65 718 -26 126 -51 308 -51 372 l0 51 68 -9 c102 -13
173 -10 211 10 55 29 118 102 158 183 66 135 57 266 -28 372 -74 95 -244 152
-357 122 -53 -15 -105 -61 -173 -152 -62 -84 -76 -93 -127 -80 -79 22 -301
124 -475 219 -100 55 -234 126 -297 157 -245 122 -300 172 -365 335 -58 144
-105 227 -263 460 -202 297 -245 352 -306 393 -54 36 -96 92 -79 107 4 4 38
17 76 30 81 26 153 73 184 118 33 49 73 180 73 238 0 108 -97 235 -226 296
-150 70 -299 52 -396 -49 -58 -59 -76 -112 -81 -233 -4 -89 -8 -106 -25 -120
-13 -11 -69 -23 -169 -35 -150 -19 -193 -20 -772 -16 l-275 2 -91 87 c-61 59
-126 108 -198 150 -133 79 -389 195 -567 257 -152 53 -166 59 -197 88 -33 29
-29 52 23 142 101 177 108 194 108 270 0 81 -11 107 -79 183 -39 43 -58 55
-112 72 -67 21 -141 24 -225 10z m638 -1120 c34 -15 108 -59 165 -97 177 -119
244 -145 669 -262 330 -91 548 -167 625 -217 36 -23 37 -39 9 -132 -43 -146
-54 -169 -95 -212 -58 -59 -157 -102 -359 -155 -179 -47 -199 -55 -468 -194
-73 -38 -140 -65 -165 -68 -40 -5 -45 -2 -79 35 -20 23 -54 78 -75 124 -41 91
-133 274 -266 528 -47 91 -102 213 -122 272 -36 108 -65 264 -65 350 0 44 2
48 28 54 15 3 32 7 37 9 24 8 105 -9 161 -35z m-929 -82 c25 -48 31 -243 9
-329 -39 -155 -124 -281 -360 -531 -86 -91 -189 -206 -228 -255 -81 -98 -106
-122 -129 -123 -9 0 -50 16 -92 35 -96 45 -355 130 -572 190 -292 80 -275 73
-331 130 -35 36 -67 85 -105 161 -41 83 -68 122 -111 165 -53 52 -56 57 -35
62 12 2 293 77 625 166 601 161 954 260 1152 325 137 45 155 45 177 4z m3213
-795 c0 -9 3 -13 6 -10 4 4 25 -26 48 -66 200 -348 531 -712 1042 -1145 122
-103 144 -131 144 -180 -1 -78 -94 -188 -208 -244 -62 -31 -73 -33 -162 -32
-73 1 -123 9 -215 34 -361 98 -323 91 -551 99 -168 6 -217 11 -236 23 -23 15
-25 24 -36 170 -6 84 -14 198 -17 253 -10 161 -22 234 -60 355 -59 188 -49
279 54 475 57 109 169 285 182 285 5 0 9 -7 9 -17z m-5818 -71 c48 -53 146
-228 170 -304 26 -82 34 -259 20 -483 -7 -113 -8 -203 -1 -270 16 -164 13
-251 -9 -293 -29 -56 -61 -69 -197 -82 -237 -21 -510 18 -800 115 -135 45
-559 216 -575 232 -3 3 6 13 20 22 147 97 363 266 541 423 58 51 198 174 310
272 121 106 237 218 284 274 119 141 175 163 237 94z m3008 -29 c14 -9 48 -37
75 -62 28 -25 99 -88 159 -140 98 -86 239 -238 295 -318 20 -30 21 -33 4 -33
-10 0 -36 5 -58 10 -66 15 -312 49 -440 60 -149 12 -476 12 -614 0 -58 -5
-106 -8 -108 -7 -7 8 142 193 222 276 102 106 191 173 273 207 69 29 156 32
192 7z m-1952 -505 c89 -16 462 -152 462 -168 0 -3 -25 -14 -55 -24 -71 -22
-481 -293 -792 -523 -62 -46 -113 -80 -113 -75 0 19 41 266 55 332 33 161 96
346 137 403 49 69 145 86 306 55z m3959 -17 c94 -47 170 -211 213 -455 21
-121 44 -355 36 -363 -3 -3 -45 24 -93 59 -268 198 -616 392 -910 508 -62 24
-109 48 -105 52 25 25 484 180 627 212 89 20 178 15 232 -13z m-6610 -1276
c73 -22 142 -72 185 -134 69 -100 102 -215 147 -516 17 -114 50 -278 76 -380
34 -131 47 -202 48 -258 2 -89 -2 -96 -98 -144 -27 -14 -132 -75 -233 -135
-426 -255 -637 -334 -897 -341 -86 -2 -97 0 -117 20 l-21 22 72 263 c127 456
183 626 301 908 68 163 300 681 313 698 14 17 161 16 224 -3z m1458 -132
c-252 -283 -454 -613 -586 -960 -5 -14 -11 -24 -13 -22 -7 7 -136 786 -136
820 1 71 58 156 126 185 43 18 469 65 657 73 l39 1 -87 -97z m6061 52 c44 -8
129 -21 189 -29 133 -18 223 -45 290 -87 150 -93 180 -181 113 -325 -25 -53
-46 -122 -63 -209 -32 -159 -56 -258 -64 -267 -4 -4 -28 41 -54 100 -116 262
-283 530 -495 790 -41 50 -38 50 84 27z m1673 -79 c19 -23 61 -203 76 -331 8
-66 22 -181 31 -255 27 -226 77 -386 154 -494 35 -48 59 -140 135 -521 46
-226 52 -283 35 -315 -15 -28 -107 -58 -213 -69 -267 -27 -410 47 -822 424
-82 76 -192 171 -243 212 -51 41 -97 86 -103 100 -26 69 1 147 113 318 36 55
114 190 172 300 59 110 133 238 164 285 67 101 204 246 275 292 91 58 201 85
226 54z m-8473 -1497 c-44 -227 -73 -733 -63 -1096 4 -117 3 -213 -1 -213 -15
0 -132 106 -200 180 -37 41 -103 118 -146 170 -44 52 -110 127 -147 165 -133
139 -148 187 -80 272 21 27 96 103 167 170 137 128 477 431 481 428 2 -1 -4
-35 -11 -76z m7749 -535 c136 -125 167 -160 195 -215 22 -42 26 -112 9 -156
-17 -44 -150 -201 -263 -310 -96 -93 -230 -203 -246 -203 -4 0 -1 35 6 78 40
226 49 356 49 688 l0 330 65 -50 c35 -28 119 -101 185 -162z m-8778 -466 c34
-27 113 -106 175 -176 168 -188 211 -227 348 -317 128 -84 195 -145 206 -190
10 -41 -23 -112 -90 -187 -90 -104 -128 -157 -232 -329 -104 -174 -181 -278
-241 -325 -78 -63 -284 -154 -348 -154 -44 0 -51 14 -59 120 -22 281 -42 452
-77 665 -52 312 -81 440 -137 605 -93 274 -61 330 205 354 156 14 144 18 250
-66z m9977 -270 c-8 -29 -55 -134 -106 -233 -114 -227 -132 -275 -158 -424
-26 -151 -57 -260 -126 -436 -118 -301 -138 -354 -170 -468 -60 -208 -97 -267
-169 -267 -51 0 -185 73 -246 135 -94 95 -122 157 -180 406 -31 136 -52 197
-113 336 -85 195 -107 261 -108 334 0 46 4 56 34 85 18 18 97 67 176 109 79
42 192 106 250 143 394 244 606 324 879 331 l52 1 -15 -52z m-8848 -810 c89
-271 224 -539 385 -765 44 -63 54 -83 41 -83 -37 0 -224 51 -367 100 -82 28
-184 63 -225 77 -44 15 -88 37 -105 54 -27 26 -30 35 -28 82 2 64 31 144 107
295 51 103 82 173 130 305 10 26 19 47 21 47 2 0 20 -51 41 -112z m7189 -293
c70 -276 88 -502 51 -613 -34 -99 -129 -163 -326 -216 -110 -30 -400 -73 -400
-60 0 2 27 37 61 77 33 39 80 104 103 142 213 351 335 585 437 842 l11 28 15
-35 c9 -19 30 -93 48 -165z m-7515 -800 c87 -22 207 -62 530 -177 47 -16 125
-39 174 -49 142 -32 196 -54 240 -100 l39 -41 -6 -172 c-12 -406 -124 -853
-245 -979 -135 -140 -277 -20 -682 573 -178 262 -220 316 -367 477 -168 186
-216 248 -208 273 17 53 85 108 228 186 77 42 86 45 140 40 31 -3 102 -17 157
-31z m1398 -388 c256 -202 621 -418 934 -552 37 -16 66 -30 64 -32 -6 -7 -417
-82 -507 -93 -126 -16 -354 -10 -394 10 -44 22 -72 72 -84 148 -33 220 -82
530 -87 550 -2 12 -2 22 1 22 3 0 36 -24 73 -53z m6239 -86 c172 -36 417 -142
468 -203 41 -48 34 -68 -52 -149 -101 -93 -211 -178 -458 -352 -314 -221 -331
-235 -656 -523 -134 -119 -249 -208 -301 -235 -20 -10 -55 -19 -77 -19 -34 0
-44 6 -74 40 -37 44 -100 185 -117 262 -13 63 2 140 51 252 51 116 127 314
167 436 45 135 70 250 80 363 5 54 11 99 13 102 6 5 265 35 399 45 163 13 449
3 557 -19z m-1447 -125 c0 -2 -41 -122 -90 -266 -92 -269 -127 -348 -182 -415
-92 -111 -239 -84 -549 102 -64 38 -142 80 -173 94 -30 13 -56 26 -56 29 0 3
20 11 44 18 68 18 347 124 481 182 132 58 382 182 460 229 47 28 65 36 65 27z
m-3145 -536 c205 -34 641 -60 995 -60 l215 0 -71 -68 c-39 -37 -100 -101 -135
-142 -268 -320 -442 -424 -570 -341 -52 33 -182 166 -260 266 -68 86 -249 340
-249 349 0 8 4 8 75 -4z m-435 -300 c45 -23 80 -71 139 -187 22 -45 83 -154
136 -242 52 -88 105 -182 119 -208 41 -81 84 -217 97 -303 13 -91 8 -245 -9
-277 -39 -72 -174 -40 -440 106 -160 87 -681 310 -1133 485 -152 59 -189 82
-189 118 0 26 86 190 144 273 61 89 96 103 282 115 82 5 160 12 174 16 14 3
108 28 210 55 277 73 398 86 470 49z m2281 -8 c26 -13 91 -61 145 -107 55 -47
151 -121 214 -165 63 -44 154 -107 201 -141 215 -149 319 -304 336 -495 8
-103 7 -104 -227 -104 -346 -1 -824 -19 -945 -34 -184 -25 -360 -62 -543 -116
-91 -28 -174 -50 -184 -50 -10 0 -27 9 -38 20 -25 25 -26 94 -5 230 35 219
130 341 515 661 175 145 296 258 327 306 16 23 21 25 87 21 47 -2 87 -11 117
-26z"/>
</g>
</svg>
